<svg width="60" height="60" viewBox="0 0 60 60" fill="none" xmlns="http://www.w3.org/2000/svg">
<path d="M55.988 30.4628C55.988 44.7998 44.363 56.4261 30.0234 56.4261C15.6837 56.4261 4.06006 44.7998 4.06006 30.4628C4.06006 16.1205 15.6837 4.49817 30.0234 4.49817C44.363 4.49817 55.988 16.1205 55.988 30.4628Z" fill="black"/>
<path d="M29.9953 0C46.7841 0 60 13.5255 60 29.9993C60 46.5706 46.5639 60 29.9953 60C13.4294 60.0013 0 46.5706 0 30.0007C0 13.4281 13.4294 0 29.9953 0ZM29.9286 36.291L21.5375 8.44711L10.672 44.0961H12.71C12.71 44.0961 14.0807 37.8952 16.3096 34.1915C17.5229 32.1802 19.3927 30.5359 21.8926 30.5812C23.653 30.6159 25.1785 31.5782 27.0831 34.2422C28.2282 35.8372 29.9913 39.9066 29.9913 39.9066C29.9913 39.9066 31.7558 35.8425 32.9049 34.2422C34.8041 31.5782 36.3297 30.6159 38.0954 30.5812C40.5926 30.5359 42.4665 32.1802 43.6743 34.1955C45.9046 37.8939 47.2739 44.0961 47.2739 44.0961H49.3173L38.4451 8.44711L30.0554 36.291L29.9953 36.3403L29.9286 36.291Z" fill="white"/>
</svg>
